<svg width="203" height="41" viewBox="0 0 203 41" fill="none" xmlns="http://www.w3.org/2000/svg">
    <path
        d="M85.8768 27.3234C84.8106 28.4481 83.4685 29.0083 81.8548 29.0083C80.2872 29.0083 78.9701 28.4354 77.8997 27.2941C76.8296 26.1486 76.2944 24.6935 76.2944 22.9208C76.2944 21.1608 76.8211 19.7183 77.8704 18.5937C78.924 17.469 80.2452 16.9048 81.8382 16.9048C83.4646 16.9048 84.8106 17.4608 85.8768 18.5644C86.9388 19.6725 87.474 21.1189 87.474 22.9C87.474 24.723 86.9388 26.1987 85.8768 27.3234ZM87.2481 12.682V14.9479C86.3285 14.0156 85.3334 13.3176 84.2504 12.8535C83.1718 12.3895 82.0179 12.1552 80.7886 12.1552C78.1129 12.1552 75.8427 13.1668 73.9739 15.1907C72.1008 17.2142 71.1646 19.8103 71.1646 22.9751C71.1646 26.0314 72.1343 28.5859 74.0658 30.6386C75.9974 32.6956 78.2886 33.7241 80.9393 33.7241C82.1183 33.7241 83.2137 33.5109 84.2254 33.0888C85.233 32.6706 86.2404 31.9807 87.2481 31.0276V33.1934H92.3906V12.682H87.2481Z"
        fill="#FFFFFF" />
    <path
        d="M111.786 12.682L105.907 25.5549L100.581 12.682H95.3215L103.119 31.6632L98.9003 40.6978H104.214L117.058 12.682H111.786Z"
        fill="#FFFFFF" />
    <path
        d="M131.812 23.7488C131.067 22.7329 129.704 21.7337 127.718 20.751L125.833 19.8106C125.018 19.4092 124.508 19.0914 124.298 18.8572C124.09 18.6271 123.989 18.3723 123.989 18.0961C123.989 17.7286 124.152 17.4273 124.478 17.1807C124.804 16.9341 125.256 16.8128 125.833 16.8128C126.891 16.8128 128.065 17.4524 129.362 18.736L132.547 15.5503C131.728 14.4546 130.733 13.6185 129.558 13.0332C128.383 12.4479 127.129 12.1552 125.795 12.1552C123.847 12.1552 122.25 12.7323 121 13.882C119.75 15.0317 119.123 16.4154 119.123 18.0379C119.123 20.5505 120.782 22.6452 124.102 24.3175L125.833 25.1828C127.33 25.9354 128.078 26.7088 128.078 27.5031C128.078 27.9297 127.869 28.3057 127.455 28.632C127.041 28.9582 126.494 29.1213 125.816 29.1213C125.189 29.1213 124.466 28.9039 123.659 28.4731C122.848 28.0383 122.141 27.4696 121.535 26.7673L118.37 30.2165C120.155 32.5536 122.543 33.7244 125.532 33.7244C127.781 33.7244 129.575 33.1138 130.917 31.893C132.255 30.6766 132.924 29.1548 132.924 27.3318C132.924 25.9605 132.551 24.7688 131.812 23.7488Z"
        fill="#FFFFFF" />
    <path
        d="M151.165 12.682L145.287 25.5549L139.96 12.682H134.701L142.498 31.6632L138.279 40.6978H143.593L156.441 12.682H151.165Z"
        fill="#FFFFFF" />
    <path
        d="M175.773 14.2873C174.356 12.8657 172.629 12.155 170.597 12.155C169.606 12.155 168.636 12.3473 167.687 12.7321C166.743 13.1168 165.685 13.8022 164.518 14.7848V12.6817H159.372V33.1932H164.518V24.9652C164.518 22.8328 164.594 21.4449 164.744 20.8051C165.033 19.576 165.547 18.6103 166.295 17.912C167.039 17.2181 167.934 16.8669 168.975 16.8669C169.778 16.8669 170.451 17.08 170.994 17.4982C171.542 17.9204 171.923 18.531 172.144 19.3378C172.362 20.1405 172.474 21.7627 172.474 24.2126V33.1932H177.562V19.6388C177.562 17.2766 176.965 15.4913 175.773 14.2873Z"
        fill="#FFFFFF" />
    <path
        d="M192.952 29.0083C191.092 29.0083 189.586 28.4565 188.441 27.3526C187.295 26.2487 186.723 24.8231 186.723 23.0797C186.723 21.2862 187.32 19.8145 188.508 18.6648C189.695 17.5193 191.254 16.9464 193.178 16.9464C194.236 16.9464 195.155 17.1095 195.946 17.4355C196.732 17.7617 197.526 18.347 198.333 19.1874L202.614 16.8294C201.586 15.3369 200.26 14.183 198.638 13.3719C197.016 12.5608 195.189 12.1552 193.153 12.1552C190.954 12.1552 188.963 12.6361 187.187 13.5893C185.406 14.5424 184.022 15.8594 183.031 17.5278C182.036 19.2 181.538 21.0269 181.538 23.0128C181.538 25.8809 182.563 28.3811 184.603 30.5174C186.647 32.654 189.469 33.7244 193.077 33.7244C197.087 33.7244 200.189 32.2903 202.388 29.4304L198.333 26.6543C197.049 28.2222 195.256 29.0083 192.952 29.0083Z"
        fill="#FFFFFF" />
    <path
        d="M61.4187 27.9463H56.4016C55.1642 27.9463 54.0437 27.4446 53.2326 26.6335C52.4215 25.8224 51.9198 24.7019 51.9198 23.4645C51.9198 20.9893 53.9267 18.9826 56.4016 18.9826H61.4187V27.9463ZM61.4187 5.10198V14.0156H56.1089C50.9039 14.0156 46.6895 18.2342 46.6895 23.4394C46.6895 26.0398 47.7431 28.3938 49.4488 30.0995C51.1506 31.8052 53.5085 32.8587 56.1089 32.8587H67.0753V5.10198H61.4187Z"
        fill="#FFFFFF" />
    <path
        d="M12.5336 36.5028H24.7253V12.1195H12.5336C5.80039 12.1195 0.341797 17.5778 0.341797 24.311C0.341797 31.0445 5.80039 36.5028 12.5336 36.5028Z"
        fill="#FFFFFF" />
    <path
        d="M25.8995 0.697767H13.7077V25.081H25.8995C32.6327 25.081 38.0913 19.6227 38.0913 12.8895C38.0913 6.15608 32.6327 0.697767 25.8995 0.697767Z"
        fill="#FFFFFF" />
</svg>